<svg width="48" height="48" viewBox="0 0 48 48" fill="none" xmlns="http://www.w3.org/2000/svg">
<rect width="48" height="48" rx="12" fill="#223B7D"/>
<g clip-path="url(#clip0_1_131)">
<path d="M26.5 22H28.9998C29.0473 22 29.0942 22.0102 29.1374 22.0298L29.3439 21.5744L29.1374 22.0298C29.1806 22.0494 29.2191 22.078 29.2504 22.1137C29.2817 22.1493 29.305 22.1913 29.3187 22.2367L29.7972 22.0918L29.3187 22.2367C29.3316 22.2793 29.3358 22.3241 29.3312 22.3683L29.32 22.4311L28.4909 25.7473C28.4744 25.8131 28.4381 25.8723 28.387 25.917C28.3383 25.9596 28.2784 25.987 28.2146 25.9961L28.1512 26H26.5H26V26.5V31.4999C26 31.5 26 31.5 26 31.5C26 31.5816 25.97 31.6604 25.9158 31.7214C25.864 31.7796 25.7935 31.8178 25.7167 31.8294L25.6517 31.8333H22.3334C22.3334 31.8333 22.3334 31.8333 22.3333 31.8333C22.2517 31.8333 22.1729 31.8033 22.1119 31.7491C22.0537 31.6973 22.0156 31.6269 22.0039 31.55L22 31.485V26.5V26H21.5H19.8334C19.8334 26 19.8334 26 19.8333 26C19.7517 26 19.6729 25.97 19.6119 25.9158C19.5537 25.864 19.5156 25.7935 19.5039 25.7167L19.5 25.6517V22.3334C19.5 22.3334 19.5 22.3334 19.5 22.3333C19.5 22.2517 19.53 22.1729 19.5842 22.1119C19.636 22.0537 19.7065 22.0155 19.7833 22.0039L19.8483 22H21.5H22V21.5V20.6667V20.6666C22 19.5024 22.4512 18.3834 23.2588 17.5448C24.0654 16.7074 25.1648 16.2147 26.3264 16.1698L26.5044 16.1667H28.9999C29 16.1667 29 16.1667 29 16.1667C29.0816 16.1667 29.1604 16.1967 29.2214 16.2509C29.2796 16.3027 29.3178 16.3731 29.3294 16.4499L29.3333 16.5149V19.8333C29.3333 19.8333 29.3333 19.8333 29.3333 19.8333C29.3333 19.9149 29.3033 19.9937 29.2491 20.0547C29.1973 20.113 29.1269 20.1511 29.05 20.1628L28.9851 20.1667H26.5H26V20.6667V21.5V22H26.5Z" fill="white" stroke="#223B7D"/>
</g>
<defs>
<clipPath id="clip0_1_131">
<rect width="20" height="20" fill="white" transform="translate(14 14)"/>
</clipPath>
</defs>
</svg>
