<svg width="65" height="65" viewBox="0 0 65 65" fill="none" xmlns="http://www.w3.org/2000/svg">
<rect width="65" height="65" rx="32.5" fill="#CCE4CC"/>
<path d="M42.5863 28.0637V28.1417L42.6124 28.2192C42.6377 28.2944 42.6558 28.3719 42.6663 28.4505V28.4508V28.4511V28.4514V28.4518V28.4521V28.4524V28.4528V28.4531V28.4534V28.4538V28.4541V28.4544V28.4547V28.455V28.4554V28.4557V28.456V28.4563V28.4566V28.4569V28.4572V28.4575V28.4578V28.4582V28.4585V28.4588V28.4591V28.4594V28.4597V28.4599V28.4602V28.4605V28.4608V28.4611V28.4614V28.4617V28.462V28.4623V28.4625V28.4628V28.4631V28.4634V28.4637V28.4639V28.4642V28.4645V28.4648V28.465V28.4653V28.4656V28.4658V28.4661V28.4664V28.4666V28.4669V28.4671V28.4674V28.4676V28.4679V28.4682V28.4684V28.4687V28.4689V28.4692V28.4694V28.4696V28.4699V28.4701V28.4704V28.4706V28.4709V28.4711V28.4713V28.4716V28.4718V28.472V28.4723V28.4725V28.4727V28.4729V28.4732V28.4734V28.4736V28.4738V28.4741V28.4743V28.4745V28.4747V28.4749V28.4751V28.4754V28.4756V28.4758V28.476V28.4762V28.4764V28.4766V28.4768V28.477V28.4772V28.4774V28.4776V28.4778V28.478V28.4782V28.4784V28.4786V28.4788V28.479V28.4792V28.4794V28.4796V28.4798V28.4799V28.4801V28.4803V28.4805V28.4807V28.4809V28.481V28.4812V28.4814V28.4816V28.4817V28.4819V28.4821V28.4823V28.4824V28.4826V28.4828V28.4829V28.4831V28.4833V28.4834V28.4836V28.4837V28.4839V28.4841V28.4842V28.4844V28.4845V28.4847V28.4848V28.485V28.4851V28.4853V28.4854V28.4856V28.4857V28.4859V28.486V28.4862V28.4863V28.4865V28.4866V28.4868V28.4869V28.487V28.4872V28.4873V28.4874V28.4876V28.4877V28.4878V28.488V28.4881V28.4882V28.4884V28.4885V28.4886V28.4887V28.4889V28.489V28.4891V28.4892V28.4894V28.4895V28.4896V28.4897V28.4898V28.49V28.4901V28.4902V28.4903V28.4904V28.4905V28.4906V28.4907V28.4909V28.491V28.4911V28.4912V28.4913V28.4914V28.4915V28.4916V28.4917V28.4918V28.4919V28.492V28.4921V28.4922V28.4923V28.4924V28.4925V28.4926V28.4927V28.4928V28.4929V28.493V28.493V28.4931V28.4932V28.4933V28.4934V28.4935V28.4936V28.4937V28.4937V28.4938V28.4939V28.494V28.4941V28.4942V28.4942V28.4943V28.4944V28.4945V28.4946V28.4946V28.4947V28.4948V28.4949V28.4949V28.495V28.4951V28.4951V28.4952V28.4953V28.4953V28.4954V28.4955V28.4956V28.4956V28.4957V28.4957V28.4958V28.4959V28.4959V28.496V28.4961V28.4961V28.4962V28.4962V28.4963V28.4964V28.4964V28.4965V28.4965V28.4966V28.4966V28.4967V28.4968V28.4968V28.4969V28.4969V28.497V28.497V28.4971V28.4971V28.4972V28.4972V28.4973V28.4973V28.4973V28.4974V28.4974V28.4975V28.4975V28.4976V28.4976V28.4977V28.4977V28.4977V28.4978V28.4978V28.4979V28.4979V28.4979V28.498V28.498V28.4981V28.4981V28.4981V28.4982V28.4982V28.4982V28.4983V28.4983V28.4983V28.4984V28.4984V28.4984V28.4985V28.4985V28.4985V28.4986V28.4986V28.4986V28.4986V28.4987V28.4987V28.4987V28.4988V28.4988V28.4988V28.4988V28.4989V28.4989V28.4989V28.4989V28.499V28.499V28.499V28.499V28.499V28.4991V28.4991V28.4991V28.4991V28.4991V28.4992V28.4992V28.4992V28.4992V28.4992V28.4993V28.4993V28.4993V28.4993V28.4993V28.4993V28.4994V28.4994V28.4994V28.4994V28.4994V28.4994V28.4995V28.4995V28.4995V28.4995V28.4996V28.4996V28.4996V28.4996V28.4996V28.4997V28.4997V28.4997V28.4997V28.4997V28.4997V28.4997V28.4998V28.4998V28.4998V28.4998V28.4998V41.8332C42.6663 42.7614 42.2976 43.6517 41.6412 44.308C40.9848 44.9644 40.0946 45.3332 39.1663 45.3332H25.833C24.9047 45.3332 24.0145 44.9644 23.3581 44.308C22.7018 43.6517 22.333 42.7614 22.333 41.8332V23.1665C22.333 22.2382 22.7018 21.348 23.3581 20.6916C24.0145 20.0353 24.9048 19.6665 25.833 19.6665H33.8295L34.1771 19.786L34.2561 19.8132H34.3359C34.3893 19.8456 34.4394 19.8834 34.4854 19.926L42.4735 27.9141C42.5161 27.9601 42.5539 28.0102 42.5863 28.0637ZM35.5199 23.3596L34.6663 22.5061V23.7132V27.1665V27.6665H35.1663H38.6197H39.8268L38.9732 26.813L35.5199 23.3596ZM24.5366 43.1295L24.8902 42.776L24.5366 43.1295C24.8805 43.4734 25.3468 43.6665 25.833 43.6665H39.1663C39.6526 43.6665 40.1189 43.4734 40.4627 43.1295C40.8065 42.7857 40.9997 42.3194 40.9997 41.8332V29.8332V29.3332H40.4997H33.833C33.612 29.3332 33.4 29.2454 33.2438 29.0891C33.0875 28.9328 32.9997 28.7208 32.9997 28.4998V21.8332V21.3332H32.4997H25.833C25.3468 21.3332 24.8805 21.5263 24.5366 21.8701C24.1928 22.214 23.9997 22.6803 23.9997 23.1665V41.8332C23.9997 42.3194 24.1928 42.7857 24.5366 43.1295Z" fill="#4EB027" stroke="#4EB027"/>
</svg>
