<svg width="48" height="47" viewBox="0 0 48 47" fill="none" xmlns="http://www.w3.org/2000/svg">
<g clip-path="url(#clip0_251_1505)">
<circle cx="27.5" cy="26.5" r="20.5" fill="url(#paint0_linear_251_1505)"/>
<path d="M18 18C17.11 18 16.24 18.2639 15.4999 18.7584C14.7599 19.2529 14.1831 19.9557 13.8425 20.7779C13.5019 21.6002 13.4128 22.505 13.5865 23.3779C13.7601 24.2508 14.1887 25.0526 14.818 25.682C15.4474 26.3113 16.2492 26.7399 17.1221 26.9135C17.995 27.0872 18.8998 26.9981 19.7221 26.6575C20.5443 26.3169 21.2471 25.7401 21.7416 25.0001C22.2361 24.26 22.5 23.39 22.5 22.5C22.5 21.3065 22.0259 20.1619 21.182 19.318C20.3381 18.4741 19.1935 18 18 18ZM18 24C17.7033 24 17.4133 23.912 17.1666 23.7472C16.92 23.5824 16.7277 23.3481 16.6142 23.074C16.5006 22.7999 16.4709 22.4983 16.5288 22.2074C16.5867 21.9164 16.7296 21.6491 16.9393 21.4393C17.1491 21.2296 17.4164 21.0867 17.7074 21.0288C17.9983 20.9709 18.2999 21.0006 18.574 21.1142C18.8481 21.2277 19.0824 21.42 19.2472 21.6666C19.412 21.9133 19.5 22.2033 19.5 22.5C19.5 22.8978 19.342 23.2794 19.0607 23.5607C18.7794 23.842 18.3978 24 18 24ZM16.935 14.565C17.0777 14.7016 17.2459 14.8086 17.43 14.88C17.6096 14.9594 17.8037 15.0003 18 15.0003C18.1963 15.0003 18.3904 14.9594 18.57 14.88C18.7541 14.8086 18.9223 14.7016 19.065 14.565L22.5 11.19C22.7904 10.8996 22.9536 10.5057 22.9536 10.095C22.9536 9.6843 22.7904 9.29041 22.5 9C22.2096 8.70959 21.8157 8.54644 21.405 8.54644C20.9943 8.54644 20.6004 8.70959 20.31 9L19.5 9.885V4.5C19.5 4.10218 19.342 3.72064 19.0607 3.43934C18.7794 3.15804 18.3978 3 18 3C17.6022 3 17.2206 3.15804 16.9393 3.43934C16.658 3.72064 16.5 4.10218 16.5 4.5V9.885L15.69 9C15.3996 8.70959 15.0057 8.54644 14.595 8.54644C14.1843 8.54644 13.7904 8.70959 13.5 9C13.2096 9.29041 13.0464 9.6843 13.0464 10.095C13.0464 10.5057 13.2096 10.8996 13.5 11.19L16.935 14.565ZM28.5 22.5C28.5 22.2033 28.412 21.9133 28.2472 21.6666C28.0824 21.42 27.8481 21.2277 27.574 21.1142C27.2999 21.0006 26.9983 20.9709 26.7074 21.0288C26.4164 21.0867 26.1491 21.2296 25.9393 21.4393C25.7296 21.6491 25.5867 21.9164 25.5288 22.2074C25.4709 22.4983 25.5006 22.7999 25.6142 23.074C25.7277 23.3481 25.92 23.5824 26.1666 23.7472C26.4133 23.912 26.7033 24 27 24C27.3978 24 27.7794 23.842 28.0607 23.5607C28.342 23.2794 28.5 22.8978 28.5 22.5ZM30 12H25.5C25.1022 12 24.7206 12.158 24.4393 12.4393C24.158 12.7206 24 13.1022 24 13.5C24 13.8978 24.158 14.2794 24.4393 14.5607C24.7206 14.842 25.1022 15 25.5 15H30C30.3978 15 30.7794 15.158 31.0607 15.4393C31.342 15.7206 31.5 16.1022 31.5 16.5V28.5C31.5 28.8978 31.342 29.2794 31.0607 29.5607C30.7794 29.842 30.3978 30 30 30H6C5.60218 30 5.22064 29.842 4.93934 29.5607C4.65804 29.2794 4.5 28.8978 4.5 28.5V16.5C4.5 16.1022 4.65804 15.7206 4.93934 15.4393C5.22064 15.158 5.60218 15 6 15H10.5C10.8978 15 11.2794 14.842 11.5607 14.5607C11.842 14.2794 12 13.8978 12 13.5C12 13.1022 11.842 12.7206 11.5607 12.4393C11.2794 12.158 10.8978 12 10.5 12H6C4.80653 12 3.66193 12.4741 2.81802 13.318C1.97411 14.1619 1.5 15.3065 1.5 16.5V28.5C1.5 29.6935 1.97411 30.8381 2.81802 31.682C3.66193 32.5259 4.80653 33 6 33H30C31.1935 33 32.3381 32.5259 33.182 31.682C34.0259 30.8381 34.5 29.6935 34.5 28.5V16.5C34.5 15.3065 34.0259 14.1619 33.182 13.318C32.3381 12.4741 31.1935 12 30 12ZM7.5 22.5C7.5 22.7967 7.58797 23.0867 7.7528 23.3334C7.91762 23.58 8.15189 23.7723 8.42597 23.8858C8.70006 23.9994 9.00166 24.0291 9.29264 23.9712C9.58361 23.9133 9.85088 23.7704 10.0607 23.5607C10.2704 23.3509 10.4133 23.0836 10.4712 22.7926C10.5291 22.5017 10.4994 22.2001 10.3858 21.926C10.2723 21.6519 10.08 21.4176 9.83335 21.2528C9.58668 21.088 9.29667 21 9 21C8.60218 21 8.22064 21.158 7.93934 21.4393C7.65804 21.7206 7.5 22.1022 7.5 22.5Z" fill="#141F14"/>
</g>
<defs>
<linearGradient id="paint0_linear_251_1505" x1="48.7321" y1="45.5357" x2="13.5893" y2="14.7857" gradientUnits="userSpaceOnUse">
<stop stop-color="#4EB027"/>
<stop offset="1" stop-color="#4EB027" stop-opacity="0"/>
</linearGradient>
<clipPath id="clip0_251_1505">
<rect width="48" height="47" fill="white"/>
</clipPath>
</defs>
</svg>
