<svg width="32" height="32" viewBox="0 0 32 32" fill="none" xmlns="http://www.w3.org/2000/svg">
<path d="M29.3334 2.66675H2.66671C2.31309 2.66675 1.97395 2.80722 1.7239 3.05727C1.47385 3.30732 1.33337 3.64646 1.33337 4.00008V14.6667C1.33337 15.0204 1.47385 15.3595 1.7239 15.6096C1.97395 15.8596 2.31309 16.0001 2.66671 16.0001H6.66671V28.0001C6.66671 28.3537 6.80718 28.6928 7.05723 28.9429C7.30728 29.1929 7.64642 29.3334 8.00004 29.3334H24C24.3537 29.3334 24.6928 29.1929 24.9429 28.9429C25.1929 28.6928 25.3334 28.3537 25.3334 28.0001V16.0001H29.3334C29.687 16.0001 30.0261 15.8596 30.2762 15.6096C30.5262 15.3595 30.6667 15.0204 30.6667 14.6667V4.00008C30.6667 3.64646 30.5262 3.30732 30.2762 3.05727C30.0261 2.80722 29.687 2.66675 29.3334 2.66675ZM9.33337 26.6667V24.0001C10.0406 24.0001 10.7189 24.281 11.219 24.7811C11.7191 25.2812 12 25.9595 12 26.6667H9.33337ZM22.6667 26.6667H20C20 25.9595 20.281 25.2812 20.7811 24.7811C21.2812 24.281 21.9595 24.0001 22.6667 24.0001V26.6667ZM22.6667 21.3334C21.2522 21.3334 19.8957 21.8953 18.8955 22.8955C17.8953 23.8957 17.3334 25.2523 17.3334 26.6667H14.6667C14.6667 25.2523 14.1048 23.8957 13.1046 22.8955C12.1044 21.8953 10.7479 21.3334 9.33337 21.3334V10.6667H22.6667V21.3334ZM28 13.3334H25.3334V9.33342C25.3334 8.97979 25.1929 8.64065 24.9429 8.39061C24.6928 8.14056 24.3537 8.00008 24 8.00008H8.00004C7.64642 8.00008 7.30728 8.14056 7.05723 8.39061C6.80718 8.64065 6.66671 8.97979 6.66671 9.33342V13.3334H4.00004V5.33341H28V13.3334ZM16 20.0001C16.7912 20.0001 17.5645 19.7655 18.2223 19.326C18.8801 18.8864 19.3928 18.2617 19.6956 17.5308C19.9983 16.7999 20.0775 15.9956 19.9232 15.2197C19.7688 14.4438 19.3879 13.7311 18.8285 13.1717C18.2691 12.6122 17.5563 12.2313 16.7804 12.0769C16.0045 11.9226 15.2002 12.0018 14.4693 12.3046C13.7384 12.6073 13.1137 13.12 12.6742 13.7778C12.2346 14.4356 12 15.209 12 16.0001C12 17.0609 12.4215 18.0784 13.1716 18.8285C13.9218 19.5787 14.9392 20.0001 16 20.0001ZM16 14.6667C16.2637 14.6667 16.5215 14.7449 16.7408 14.8915C16.9601 15.038 17.131 15.2462 17.2319 15.4898C17.3328 15.7335 17.3592 16.0016 17.3078 16.2602C17.2563 16.5188 17.1293 16.7564 16.9428 16.9429C16.7564 17.1294 16.5188 17.2563 16.2602 17.3078C16.0015 17.3592 15.7334 17.3328 15.4898 17.2319C15.2462 17.131 15.0379 16.9601 14.8914 16.7408C14.7449 16.5216 14.6667 16.2638 14.6667 16.0001C14.6667 15.6465 14.8072 15.3073 15.0572 15.0573C15.3073 14.8072 15.6464 14.6667 16 14.6667Z" fill="#141F14"/>
<path d="M29.3334 2.66675H2.66671C2.31309 2.66675 1.97395 2.80722 1.7239 3.05727C1.47385 3.30732 1.33337 3.64646 1.33337 4.00008V14.6667C1.33337 15.0204 1.47385 15.3595 1.7239 15.6096C1.97395 15.8596 2.31309 16.0001 2.66671 16.0001H6.66671V28.0001C6.66671 28.3537 6.80718 28.6928 7.05723 28.9429C7.30728 29.1929 7.64642 29.3334 8.00004 29.3334H24C24.3537 29.3334 24.6928 29.1929 24.9429 28.9429C25.1929 28.6928 25.3334 28.3537 25.3334 28.0001V16.0001H29.3334C29.687 16.0001 30.0261 15.8596 30.2762 15.6096C30.5262 15.3595 30.6667 15.0204 30.6667 14.6667V4.00008C30.6667 3.64646 30.5262 3.30732 30.2762 3.05727C30.0261 2.80722 29.687 2.66675 29.3334 2.66675ZM9.33337 26.6667V24.0001C10.0406 24.0001 10.7189 24.281 11.219 24.7811C11.7191 25.2812 12 25.9595 12 26.6667H9.33337ZM22.6667 26.6667H20C20 25.9595 20.281 25.2812 20.7811 24.7811C21.2812 24.281 21.9595 24.0001 22.6667 24.0001V26.6667ZM22.6667 21.3334C21.2522 21.3334 19.8957 21.8953 18.8955 22.8955C17.8953 23.8957 17.3334 25.2523 17.3334 26.6667H14.6667C14.6667 25.2523 14.1048 23.8957 13.1046 22.8955C12.1044 21.8953 10.7479 21.3334 9.33337 21.3334V10.6667H22.6667V21.3334ZM28 13.3334H25.3334V9.33342C25.3334 8.97979 25.1929 8.64065 24.9429 8.39061C24.6928 8.14056 24.3537 8.00008 24 8.00008H8.00004C7.64642 8.00008 7.30728 8.14056 7.05723 8.39061C6.80718 8.64065 6.66671 8.97979 6.66671 9.33342V13.3334H4.00004V5.33341H28V13.3334ZM16 20.0001C16.7912 20.0001 17.5645 19.7655 18.2223 19.326C18.8801 18.8864 19.3928 18.2617 19.6956 17.5308C19.9983 16.7999 20.0775 15.9956 19.9232 15.2197C19.7688 14.4438 19.3879 13.7311 18.8285 13.1717C18.2691 12.6122 17.5563 12.2313 16.7804 12.0769C16.0045 11.9226 15.2002 12.0018 14.4693 12.3046C13.7384 12.6073 13.1137 13.12 12.6742 13.7778C12.2346 14.4356 12 15.209 12 16.0001C12 17.0609 12.4215 18.0784 13.1716 18.8285C13.9218 19.5787 14.9392 20.0001 16 20.0001ZM16 14.6667C16.2637 14.6667 16.5215 14.7449 16.7408 14.8915C16.9601 15.038 17.131 15.2462 17.2319 15.4898C17.3328 15.7335 17.3592 16.0016 17.3078 16.2602C17.2563 16.5188 17.1293 16.7564 16.9428 16.9429C16.7564 17.1294 16.5188 17.2563 16.2602 17.3078C16.0015 17.3592 15.7334 17.3328 15.4898 17.2319C15.2462 17.131 15.0379 16.9601 14.8914 16.7408C14.7449 16.5216 14.6667 16.2638 14.6667 16.0001C14.6667 15.6465 14.8072 15.3073 15.0572 15.0573C15.3073 14.8072 15.6464 14.6667 16 14.6667Z" stroke="#141F14"/>
</svg>
