<svg width="32" height="32" viewBox="0 0 32 32" fill="none" xmlns="http://www.w3.org/2000/svg">
<path d="M13.9467 8.00002L14.6667 7.21336V12C14.6667 12.3536 14.8072 12.6928 15.0572 12.9428C15.3073 13.1929 15.6464 13.3334 16 13.3334C16.3537 13.3334 16.6928 13.1929 16.9428 12.9428C17.1929 12.6928 17.3334 12.3536 17.3334 12V7.21336L18.0534 7.94669C18.1744 8.08339 18.3222 8.19377 18.4877 8.271C18.6531 8.34823 18.8326 8.39066 19.0151 8.39566C19.1976 8.40066 19.3792 8.36813 19.5487 8.30007C19.7181 8.23201 19.8717 8.12989 20 8.00002C20.125 7.87607 20.2242 7.72861 20.2919 7.56613C20.3596 7.40365 20.3944 7.22937 20.3944 7.05336C20.3944 6.87734 20.3596 6.70307 20.2919 6.54059C20.2242 6.37811 20.125 6.23064 20 6.10669L16.9467 3.05336C16.8199 2.93197 16.6704 2.83682 16.5067 2.77336C16.1821 2.64 15.818 2.64 15.4934 2.77336C15.3297 2.83682 15.1802 2.93197 15.0534 3.05336L12 6.05336C11.7419 6.3115 11.5969 6.66162 11.5969 7.02669C11.5969 7.39176 11.7419 7.74188 12 8.00002C12.2582 8.25817 12.6083 8.40319 12.9734 8.40319C13.3384 8.40319 13.6886 8.25817 13.9467 8.00002ZM16 16C15.2089 16 14.4356 16.2346 13.7778 16.6741C13.12 17.1137 12.6073 17.7384 12.3045 18.4693C12.0018 19.2002 11.9226 20.0045 12.0769 20.7804C12.2312 21.5563 12.6122 22.269 13.1716 22.8285C13.731 23.3879 14.4438 23.7688 15.2197 23.9232C15.9956 24.0775 16.7999 23.9983 17.5308 23.6955C18.2617 23.3928 18.8864 22.8801 19.3259 22.2223C19.7654 21.5645 20 20.7911 20 20C20 18.9392 19.5786 17.9217 18.8285 17.1716C18.0783 16.4215 17.0609 16 16 16ZM16 21.3334C15.7363 21.3334 15.4785 21.2552 15.2593 21.1087C15.04 20.9621 14.8691 20.7539 14.7682 20.5103C14.6673 20.2666 14.6409 19.9985 14.6923 19.7399C14.7438 19.4813 14.8708 19.2437 15.0572 19.0572C15.2437 18.8707 15.4813 18.7438 15.7399 18.6923C15.9986 18.6409 16.2667 18.6673 16.5103 18.7682C16.7539 18.8691 16.9622 19.04 17.1087 19.2593C17.2552 19.4785 17.3334 19.7363 17.3334 20C17.3334 20.3536 17.1929 20.6928 16.9428 20.9428C16.6928 21.1929 16.3537 21.3334 16 21.3334ZM6.66671 20C6.66671 20.2637 6.74491 20.5215 6.89141 20.7408C7.03792 20.9601 7.24616 21.1309 7.4898 21.2319C7.73343 21.3328 8.00152 21.3592 8.26016 21.3077C8.5188 21.2563 8.75638 21.1293 8.94285 20.9428C9.12932 20.7564 9.25631 20.5188 9.30775 20.2601C9.3592 20.0015 9.3328 19.7334 9.23188 19.4898C9.13096 19.2461 8.96007 19.0379 8.7408 18.8914C8.52153 18.7449 8.26375 18.6667 8.00004 18.6667C7.64642 18.6667 7.30728 18.8072 7.05723 19.0572C6.80718 19.3073 6.66671 19.6464 6.66671 20ZM25.3334 20C25.3334 19.7363 25.2552 19.4785 25.1087 19.2593C24.9622 19.04 24.7539 18.8691 24.5103 18.7682C24.2666 18.6673 23.9986 18.6409 23.7399 18.6923C23.4813 18.7438 23.2437 18.8707 23.0572 19.0572C22.8708 19.2437 22.7438 19.4813 22.6923 19.7399C22.6409 19.9985 22.6673 20.2666 22.7682 20.5103C22.8691 20.7539 23.04 20.9621 23.2593 21.1087C23.4785 21.2552 23.7363 21.3334 24 21.3334C24.3537 21.3334 24.6928 21.1929 24.9429 20.9428C25.1929 20.6928 25.3334 20.3536 25.3334 20ZM26.6667 10.6667H21.3334C20.9798 10.6667 20.6406 10.8072 20.3906 11.0572C20.1405 11.3073 20 11.6464 20 12C20 12.3536 20.1405 12.6928 20.3906 12.9428C20.6406 13.1929 20.9798 13.3334 21.3334 13.3334H26.6667C27.0203 13.3334 27.3595 13.4738 27.6095 13.7239C27.8596 13.9739 28 14.3131 28 14.6667V25.3334C28 25.687 27.8596 26.0261 27.6095 26.2762C27.3595 26.5262 27.0203 26.6667 26.6667 26.6667H5.33337C4.97975 26.6667 4.64061 26.5262 4.39056 26.2762C4.14052 26.0261 4.00004 25.687 4.00004 25.3334V14.6667C4.00004 14.3131 4.14052 13.9739 4.39056 13.7239C4.64061 13.4738 4.97975 13.3334 5.33337 13.3334H10.6667C11.0203 13.3334 11.3595 13.1929 11.6095 12.9428C11.8596 12.6928 12 12.3536 12 12C12 11.6464 11.8596 11.3073 11.6095 11.0572C11.3595 10.8072 11.0203 10.6667 10.6667 10.6667H5.33337C4.27251 10.6667 3.25509 11.0881 2.50495 11.8383C1.7548 12.5884 1.33337 13.6058 1.33337 14.6667V25.3334C1.33337 26.3942 1.7548 27.4116 2.50495 28.1618C3.25509 28.9119 4.27251 29.3334 5.33337 29.3334H26.6667C27.7276 29.3334 28.745 28.9119 29.4951 28.1618C30.2453 27.4116 30.6667 26.3942 30.6667 25.3334V14.6667C30.6667 13.6058 30.2453 12.5884 29.4951 11.8383C28.745 11.0881 27.7276 10.6667 26.6667 10.6667Z" fill="#141F14"/>
</svg>
