<svg width="48" height="47" viewBox="0 0 48 47" fill="none" xmlns="http://www.w3.org/2000/svg">
<circle cx="27.5" cy="26.5" r="20.5" fill="url(#paint0_linear_256_1462)"/>
<path d="M15 12H24C24.3978 12 24.7794 11.842 25.0607 11.5607C25.342 11.2794 25.5 10.8978 25.5 10.5C25.5 10.1022 25.342 9.72064 25.0607 9.43934C24.7794 9.15804 24.3978 9 24 9H15C14.6022 9 14.2206 9.15804 13.9393 9.43934C13.658 9.72064 13.5 10.1022 13.5 10.5C13.5 10.8978 13.658 11.2794 13.9393 11.5607C14.2206 11.842 14.6022 12 15 12ZM12 18H24C24.3978 18 24.7794 17.842 25.0607 17.5607C25.342 17.2794 25.5 16.8978 25.5 16.5C25.5 16.1022 25.342 15.7206 25.0607 15.4393C24.7794 15.158 24.3978 15 24 15H12C11.6022 15 11.2206 15.158 10.9393 15.4393C10.658 15.7206 10.5 16.1022 10.5 16.5C10.5 16.8978 10.658 17.2794 10.9393 17.5607C11.2206 17.842 11.6022 18 12 18ZM12 24H24C24.3978 24 24.7794 23.842 25.0607 23.5607C25.342 23.2794 25.5 22.8978 25.5 22.5C25.5 22.1022 25.342 21.7206 25.0607 21.4393C24.7794 21.158 24.3978 21 24 21H12C11.6022 21 11.2206 21.158 10.9393 21.4393C10.658 21.7206 10.5 22.1022 10.5 22.5C10.5 22.8978 10.658 23.2794 10.9393 23.5607C11.2206 23.842 11.6022 24 12 24ZM30 3H6C5.60218 3 5.22064 3.15804 4.93934 3.43934C4.65804 3.72064 4.5 4.10218 4.5 4.5V31.5C4.5 31.7786 4.57757 32.0516 4.72402 32.2886C4.87048 32.5256 5.08002 32.7171 5.32918 32.8416C5.57834 32.9662 5.85727 33.019 6.13471 32.9939C6.41215 32.9689 6.67715 32.8671 6.9 32.7L10.005 30.375L13.095 32.7C13.3546 32.8947 13.6704 33 13.995 33C14.3196 33 14.6354 32.8947 14.895 32.7L18 30.375L21.105 32.7C21.3646 32.8947 21.6804 33 22.005 33C22.3296 33 22.6454 32.8947 22.905 32.7L25.995 30.375L29.1 32.7C29.3239 32.8669 29.59 32.968 29.8683 32.9918C30.1465 33.0157 30.4259 32.9614 30.675 32.835C30.9224 32.7104 31.1304 32.5196 31.276 32.284C31.4216 32.0484 31.4992 31.777 31.5 31.5V4.5C31.5 4.10218 31.342 3.72064 31.0607 3.43934C30.7794 3.15804 30.3978 3 30 3ZM28.5 28.5L26.895 27.3C26.6354 27.1053 26.3196 27 25.995 27C25.6704 27 25.3546 27.1053 25.095 27.3L22.005 29.625L18.9 27.3C18.6404 27.1053 18.3246 27 18 27C17.6754 27 17.3596 27.1053 17.1 27.3L13.995 29.625L10.905 27.3C10.6454 27.1053 10.3296 27 10.005 27C9.68044 27 9.36464 27.1053 9.105 27.3L7.5 28.5V6H28.5V28.5Z" fill="#141F14"/>
<defs>
<linearGradient id="paint0_linear_256_1462" x1="48.7321" y1="45.5357" x2="13.5893" y2="14.7857" gradientUnits="userSpaceOnUse">
<stop stop-color="#4EB027"/>
<stop offset="1" stop-color="#4EB027" stop-opacity="0"/>
</linearGradient>
</defs>
</svg>
