<svg width="48" height="47" viewBox="0 0 48 47" fill="none" xmlns="http://www.w3.org/2000/svg">
<circle cx="27.5" cy="26.5" r="20.5" fill="url(#paint0_linear_251_1552)"/>
<path d="M31.5 15C31.697 15 31.8921 14.9613 32.0741 14.8859C32.2561 14.8106 32.4215 14.7001 32.5608 14.5608C32.7001 14.4215 32.8106 14.2561 32.8859 14.0741C32.9613 13.8921 33.0001 13.697 33 13.5V9C33.0001 8.68526 32.9011 8.37847 32.7171 8.12316C32.533 7.86785 32.2733 7.67699 31.9746 7.57764L18.4746 3.07764C18.1665 2.9751 17.8335 2.9751 17.5254 3.07764L4.02539 7.57764C3.72674 7.67699 3.46696 7.86785 3.28291 8.12316C3.09885 8.37847 2.99987 8.68526 3 9V13.5C2.99995 13.697 3.03871 13.8921 3.11408 14.0741C3.18944 14.2561 3.29993 14.4215 3.43923 14.5608C3.57852 14.7001 3.7439 14.8106 3.92591 14.8859C4.10793 14.9613 4.303 15 4.5 15H6V25.7764C5.12511 26.0846 4.36705 26.656 3.8299 27.4122C3.29275 28.1685 3.00285 29.0724 3 30V33C2.99995 33.197 3.03871 33.3921 3.11408 33.5741C3.18944 33.7561 3.29993 33.9215 3.43923 34.0608C3.57852 34.2001 3.7439 34.3106 3.92591 34.3859C4.10793 34.4613 4.303 34.5 4.5 34.5H31.5C31.697 34.5 31.8921 34.4613 32.0741 34.3859C32.2561 34.3106 32.4215 34.2001 32.5608 34.0608C32.7001 33.9215 32.8106 33.7561 32.8859 33.5741C32.9613 33.3921 33.0001 33.197 33 33V30C32.9971 29.0724 32.7072 28.1685 32.1701 27.4122C31.633 26.656 30.8749 26.0846 30 25.7764V15H31.5ZM30 31.5H6V30C6.0004 29.6023 6.15856 29.221 6.43978 28.9398C6.721 28.6586 7.1023 28.5004 7.5 28.5H28.5C28.8977 28.5004 29.279 28.6586 29.5602 28.9398C29.8414 29.221 29.9996 29.6023 30 30V31.5ZM9 25.5V15H12V25.5H9ZM15 25.5V15H21V25.5H15ZM24 25.5V15H27V25.5H24ZM6 12V10.081L18 6.08055L30 10.081V12H6Z" fill="#141F14"/>
<defs>
<linearGradient id="paint0_linear_251_1552" x1="48.7321" y1="45.5357" x2="13.5893" y2="14.7857" gradientUnits="userSpaceOnUse">
<stop stop-color="#4EB027"/>
<stop offset="1" stop-color="#4EB027" stop-opacity="0"/>
</linearGradient>
</defs>
</svg>
