<svg width="48" height="47" viewBox="0 0 48 47" fill="none" xmlns="http://www.w3.org/2000/svg">
<circle cx="27.5" cy="26.5" r="20.5" fill="url(#paint0_linear_251_1551)"/>
<path d="M15 25.5H16.5V27C16.5 27.3978 16.658 27.7794 16.9393 28.0607C17.2206 28.342 17.6022 28.5 18 28.5C18.3978 28.5 18.7794 28.342 19.0607 28.0607C19.342 27.7794 19.5 27.3978 19.5 27V25.5H21C21.3978 25.5 21.7794 25.342 22.0607 25.0607C22.342 24.7794 22.5 24.3978 22.5 24C22.5 23.6022 22.342 23.2206 22.0607 22.9393C21.7794 22.658 21.3978 22.5 21 22.5H19.5V21C19.5 20.6022 19.342 20.2206 19.0607 19.9393C18.7794 19.658 18.3978 19.5 18 19.5C17.6022 19.5 17.2206 19.658 16.9393 19.9393C16.658 20.2206 16.5 20.6022 16.5 21V22.5H15C14.6022 22.5 14.2206 22.658 13.9393 22.9393C13.658 23.2206 13.5 23.6022 13.5 24C13.5 24.3978 13.658 24.7794 13.9393 25.0607C14.2206 25.342 14.6022 25.5 15 25.5ZM28.5 9H25.5V7.5C25.5 6.30653 25.0259 5.16193 24.182 4.31802C23.3381 3.47411 22.1935 3 21 3H15C13.8065 3 12.6619 3.47411 11.818 4.31802C10.9741 5.16193 10.5 6.30653 10.5 7.5V9H7.5C6.30653 9 5.16193 9.47411 4.31802 10.318C3.47411 11.1619 3 12.3065 3 13.5V28.5C3 29.6935 3.47411 30.8381 4.31802 31.682C5.16193 32.5259 6.30653 33 7.5 33H28.5C29.6935 33 30.8381 32.5259 31.682 31.682C32.5259 30.8381 33 29.6935 33 28.5V13.5C33 12.3065 32.5259 11.1619 31.682 10.318C30.8381 9.47411 29.6935 9 28.5 9ZM13.5 7.5C13.5 7.10218 13.658 6.72064 13.9393 6.43934C14.2206 6.15804 14.6022 6 15 6H21C21.3978 6 21.7794 6.15804 22.0607 6.43934C22.342 6.72064 22.5 7.10218 22.5 7.5V9H13.5V7.5ZM30 28.5C30 28.8978 29.842 29.2794 29.5607 29.5607C29.2794 29.842 28.8978 30 28.5 30H7.5C7.10218 30 6.72064 29.842 6.43934 29.5607C6.15804 29.2794 6 28.8978 6 28.5V18H30V28.5ZM30 15H6V13.5C6 13.1022 6.15804 12.7206 6.43934 12.4393C6.72064 12.158 7.10218 12 7.5 12H28.5C28.8978 12 29.2794 12.158 29.5607 12.4393C29.842 12.7206 30 13.1022 30 13.5V15Z" fill="#141F14"/>
<defs>
<linearGradient id="paint0_linear_251_1551" x1="48.7321" y1="45.5357" x2="13.5893" y2="14.7857" gradientUnits="userSpaceOnUse">
<stop stop-color="#4EB027"/>
<stop offset="1" stop-color="#4EB027" stop-opacity="0"/>
</linearGradient>
</defs>
</svg>
