<svg width="48" height="47" viewBox="0 0 48 47" fill="none" xmlns="http://www.w3.org/2000/svg">
<circle cx="27.5" cy="26.5" r="20.5" fill="url(#paint0_linear_251_1550)"/>
<path d="M12 16.5001H24C24.2215 16.4986 24.44 16.4481 24.6397 16.3521C24.8394 16.2561 25.0154 16.1171 25.155 15.9451C25.3016 15.7764 25.4087 15.577 25.4684 15.3616C25.5281 15.1462 25.5389 14.9202 25.5 14.7001L24 7.20006C23.9299 6.85615 23.7413 6.54771 23.4673 6.32845C23.1932 6.10919 22.8509 5.99298 22.5 6.00006H13.5C13.1491 5.99298 12.8068 6.10919 12.5327 6.32845C12.2586 6.54771 12.0701 6.85615 12 7.20006L10.5 14.7001C10.457 14.918 10.463 15.1427 10.5175 15.358C10.572 15.5733 10.6736 15.7738 10.815 15.9451C10.9577 16.1211 11.1385 16.2625 11.3438 16.3586C11.549 16.4547 11.7734 16.5031 12 16.5001ZM14.73 9.00006H21.27L22.17 13.5001H13.83L14.73 9.00006ZM33 20.7001C32.9299 20.3561 32.7413 20.0477 32.4673 19.8285C32.1932 19.6092 31.8509 19.493 31.5 19.5001H22.5C22.1491 19.493 21.8068 19.6092 21.5327 19.8285C21.2586 20.0477 21.0701 20.3561 21 20.7001L19.5 28.2001C19.457 28.418 19.463 28.6427 19.5175 28.858C19.572 29.0733 19.6736 29.2738 19.815 29.4451C19.9577 29.6211 20.1385 29.7625 20.3438 29.8586C20.549 29.9547 20.7734 30.0031 21 30.0001H33C33.2215 29.9986 33.44 29.9481 33.6397 29.8521C33.8394 29.7561 34.0154 29.6171 34.155 29.4451C34.3016 29.2764 34.4087 29.077 34.4684 28.8616C34.5281 28.6462 34.5389 28.4202 34.5 28.2001L33 20.7001ZM22.83 27.0001L23.73 22.5001H30.27L31.17 27.0001H22.83ZM13.5 19.5001H4.49998C4.14906 19.493 3.80677 19.6092 3.53269 19.8285C3.25861 20.0477 3.07011 20.3561 2.99998 20.7001L1.49998 28.2001C1.45704 28.418 1.46303 28.6427 1.5175 28.858C1.57198 29.0733 1.67358 29.2738 1.81498 29.4451C1.95774 29.6211 2.13853 29.7625 2.34377 29.8586C2.54901 29.9547 2.77336 30.0031 2.99998 30.0001H15C15.2215 29.9986 15.44 29.9481 15.6397 29.8521C15.8394 29.7561 16.0154 29.6171 16.155 29.4451C16.3016 29.2764 16.4087 29.077 16.4684 28.8616C16.5281 28.6462 16.5389 28.4202 16.5 28.2001L15 20.7001C14.9299 20.3561 14.7413 20.0477 14.4673 19.8285C14.1932 19.6092 13.8509 19.493 13.5 19.5001ZM4.82998 27.0001L5.72998 22.5001H12.27L13.17 27.0001H4.82998Z" fill="#141F14"/>
<defs>
<linearGradient id="paint0_linear_251_1550" x1="48.7321" y1="45.5357" x2="13.5893" y2="14.7857" gradientUnits="userSpaceOnUse">
<stop stop-color="#4EB027"/>
<stop offset="1" stop-color="#4EB027" stop-opacity="0"/>
</linearGradient>
</defs>
</svg>
