<svg width="61" height="58" viewBox="0 0 61 58" fill="none" xmlns="http://www.w3.org/2000/svg">
<circle cx="32" cy="29" r="29" fill="url(#paint0_linear_264_478)"/>
<path d="M33.25 13.5H28V11.75C28 10.8217 27.6313 9.9315 26.9749 9.27513C26.3185 8.61875 25.4283 8.25 24.5 8.25H17.5C16.5717 8.25 15.6815 8.61875 15.0251 9.27513C14.3687 9.9315 14 10.8217 14 11.75V13.5H8.75C7.35761 13.5 6.02226 14.0531 5.03769 15.0377C4.05312 16.0223 3.5 17.3576 3.5 18.75V34.5C3.5 35.8924 4.05312 37.2277 5.03769 38.2123C6.02226 39.1969 7.35761 39.75 8.75 39.75H33.25C34.6424 39.75 35.9777 39.1969 36.9623 38.2123C37.9469 37.2277 38.5 35.8924 38.5 34.5V18.75C38.5 17.3576 37.9469 16.0223 36.9623 15.0377C35.9777 14.0531 34.6424 13.5 33.25 13.5ZM17.5 11.75H24.5V13.5H17.5V11.75ZM35 34.5C35 34.9641 34.8156 35.4093 34.4874 35.7374C34.1593 36.0656 33.7141 36.25 33.25 36.25H8.75C8.28587 36.25 7.84075 36.0656 7.51256 35.7374C7.18437 35.4093 7 34.9641 7 34.5V24.6825L15.19 27.5C15.3758 27.5252 15.5642 27.5252 15.75 27.5H26.25C26.4398 27.4965 26.6282 27.4671 26.81 27.4125L35 24.6825V34.5ZM35 20.99L25.97 24H16.03L7 20.99V18.75C7 18.2859 7.18437 17.8408 7.51256 17.5126C7.84075 17.1844 8.28587 17 8.75 17H33.25C33.7141 17 34.1593 17.1844 34.4874 17.5126C34.8156 17.8408 35 18.2859 35 18.75V20.99Z" fill="#141F14"/>
<defs>
<linearGradient id="paint0_linear_264_478" x1="62.0357" y1="55.9286" x2="12.3214" y2="12.4286" gradientUnits="userSpaceOnUse">
<stop stop-color="#4EB027"/>
<stop offset="1" stop-color="#4EB027" stop-opacity="0"/>
</linearGradient>
</defs>
</svg>
