<svg width="61" height="58" viewBox="0 0 61 58" fill="none" xmlns="http://www.w3.org/2000/svg">
<circle cx="32" cy="29" r="29" fill="url(#paint0_linear_264_1370)"/>
<path d="M37.31 11.8375L26.81 8.33753H26.6875C26.606 8.32935 26.524 8.32935 26.4425 8.33753H26.04H25.8125H25.69L15.75 11.75L5.81001 8.33753C5.54683 8.25075 5.26681 8.22771 4.99299 8.27031C4.71917 8.3129 4.45938 8.41991 4.23501 8.58253C4.00883 8.74356 3.82422 8.9561 3.69642 9.20257C3.56861 9.44905 3.50129 9.7224 3.50001 10V34.5C3.49906 34.8669 3.61344 35.2248 3.82698 35.5231C4.04052 35.8215 4.34242 36.0451 4.69001 36.1625L15.19 39.6625C15.5425 39.7775 15.9225 39.7775 16.275 39.6625L26.25 36.3375L36.19 39.75C36.3758 39.7752 36.5642 39.7752 36.75 39.75C37.1159 39.7552 37.4731 39.6382 37.765 39.4175C37.9912 39.2565 38.1758 39.044 38.3036 38.7975C38.4314 38.551 38.4987 38.2777 38.5 38V13.5C38.5009 13.1332 38.3866 12.7753 38.173 12.4769C37.9595 12.1786 37.6576 11.9549 37.31 11.8375ZM14 35.5675L7.00001 33.24V12.4325L14 14.76V35.5675ZM24.5 33.24L17.5 35.5675V14.76L24.5 12.4325V33.24ZM35 35.5675L28 33.24V12.4325L35 14.76V35.5675Z" fill="#141F14"/>
<defs>
<linearGradient id="paint0_linear_264_1370" x1="62.0357" y1="55.9286" x2="12.3214" y2="12.4286" gradientUnits="userSpaceOnUse">
<stop stop-color="#4EB027"/>
<stop offset="1" stop-color="#4EB027" stop-opacity="0"/>
</linearGradient>
</defs>
</svg>
