<svg width="69" height="75" viewBox="0 0 69 75" fill="none" xmlns="http://www.w3.org/2000/svg">
<path d="M0.00195312 2.5H7.41633C27.8914 2.5 44.4896 19.0984 44.4895 39.5734L44.4893 75.0001" stroke="#141F14" stroke-width="3.2"/>
<path d="M0 9H6.4151C23.8186 9 37.927 23.1082 37.9273 40.5117L37.9278 75.0001" stroke="#141F14" stroke-width="3.2"/>
<path d="M0 15.6829H5.41463C19.7471 15.6829 31.3659 27.3016 31.3659 41.6341V74.9999" stroke="#141F14" stroke-width="3.2"/>
<path fill-rule="evenodd" clip-rule="evenodd" d="M68.5859 30.5122H66.7323C59.9304 30.5122 53.5788 32.4405 48.1944 35.7801V31.494C53.7061 28.5034 60.0208 26.8049 66.7323 26.8049H68.5859V30.5122Z" fill="#141F14"/>
<path fill-rule="evenodd" clip-rule="evenodd" d="M47.9124 55.6039C52.6521 49.3679 60.1489 45.3416 68.586 45.3416V41.6343C60.4545 41.6343 53.0873 44.9067 47.7296 50.2063L47.9124 55.6039Z" fill="#141F14"/>
<path fill-rule="evenodd" clip-rule="evenodd" d="M48.1944 45.4131C53.6904 40.7438 60.8092 37.9268 68.5859 37.9268V34.2195C60.9863 34.2195 53.9489 36.6265 48.1944 40.7197V45.4131Z" fill="#141F14"/>
</svg>
