<svg width="16" height="16" viewBox="0 0 16 16" fill="none" xmlns="http://www.w3.org/2000/svg">
<path d="M13.6466 6.00007C13.7785 6.00007 13.9074 5.96098 14.017 5.88772C14.1267 5.81447 14.2121 5.71035 14.2626 5.58853C14.313 5.46671 14.3262 5.33267 14.3005 5.20335C14.2748 5.07403 14.2113 4.95524 14.118 4.862C14.0248 4.76877 13.906 4.70527 13.7767 4.67955C13.6474 4.65383 13.5133 4.66703 13.3915 4.71749C13.2697 4.76795 13.1656 4.8534 13.0923 4.96303C13.0191 5.07266 12.98 5.20155 12.98 5.33341C12.98 5.51022 13.0502 5.67979 13.1752 5.80481C13.3003 5.92984 13.4698 6.00007 13.6466 6.00007ZM11.6466 6.00007C11.7785 6.00007 11.9074 5.96098 12.017 5.88772C12.1267 5.81447 12.2121 5.71035 12.2626 5.58853C12.313 5.46671 12.3262 5.33267 12.3005 5.20335C12.2748 5.07403 12.2113 4.95524 12.118 4.862C12.0248 4.76877 11.906 4.70527 11.7767 4.67955C11.6474 4.65383 11.5133 4.66703 11.3915 4.71749C11.2697 4.76795 11.1656 4.8534 11.0923 4.96303C11.0191 5.07266 10.98 5.20155 10.98 5.33341C10.98 5.51022 11.0502 5.67979 11.1752 5.80481C11.3003 5.92984 11.4698 6.00007 11.6466 6.00007ZM9.64664 6.00007C9.7785 6.00007 9.90739 5.96098 10.017 5.88772C10.1267 5.81447 10.2121 5.71035 10.2626 5.58853C10.313 5.46671 10.3262 5.33267 10.3005 5.20335C10.2748 5.07403 10.2113 4.95524 10.118 4.862C10.0248 4.76877 9.90602 4.70527 9.7767 4.67955C9.64738 4.65383 9.51334 4.66703 9.39152 4.71749C9.2697 4.76795 9.16558 4.8534 9.09233 4.96303C9.01908 5.07266 8.97998 5.20155 8.97998 5.33341C8.97998 5.42096 8.99722 5.50765 9.03072 5.58853C9.06423 5.66941 9.11333 5.74291 9.17524 5.80481C9.23714 5.86672 9.31064 5.91582 9.39152 5.94933C9.4724 5.98283 9.5591 6.00007 9.64664 6.00007ZM12.6066 8.66674C12.46 8.66674 12.3066 8.62008 12.16 8.58674C11.863 8.52129 11.5711 8.4344 11.2866 8.32674C10.9774 8.21423 10.6374 8.22007 10.3322 8.34315C10.027 8.46622 9.77803 8.69783 9.63331 8.99341L9.48664 9.29341C8.83631 8.93063 8.23763 8.48218 7.70664 7.96007C7.18709 7.42936 6.73888 6.83323 6.37331 6.18674L6.66664 6.00007C6.96222 5.85535 7.19383 5.60643 7.31691 5.3012C7.43998 4.99598 7.44582 4.65602 7.33331 4.34674C7.22746 4.06169 7.1406 3.76994 7.07331 3.47341C7.03998 3.32007 7.01331 3.17341 6.99331 3.02008C6.91235 2.55049 6.66639 2.12524 6.29972 1.8209C5.93305 1.51657 5.46977 1.35315 4.99331 1.36007H2.99331C2.71147 1.35971 2.43274 1.41891 2.17539 1.5338C1.91803 1.64869 1.68787 1.81667 1.49998 2.02674C1.3091 2.24174 1.16682 2.49536 1.08284 2.77032C0.998857 3.04528 0.975141 3.33512 1.01331 3.62007C1.36445 6.41144 2.63489 9.00646 4.62424 10.9958C6.61359 12.9852 9.20861 14.2556 12 14.6067C12.0865 14.6134 12.1734 14.6134 12.26 14.6067C12.7904 14.6067 13.2991 14.396 13.6742 14.021C14.0493 13.6459 14.26 13.1372 14.26 12.6067V10.6067C14.2531 10.1416 14.0842 9.69333 13.7824 9.33924C13.4806 8.98514 13.0648 8.74733 12.6066 8.66674ZM12.9333 12.6667C12.9344 12.7634 12.9145 12.8591 12.8749 12.9473C12.8353 13.0354 12.7771 13.1139 12.7041 13.1774C12.6312 13.2408 12.5454 13.2876 12.4526 13.3145C12.3597 13.3415 12.2622 13.3479 12.1666 13.3334C9.67741 13.0086 7.36471 11.8722 5.58664 10.1001C3.80998 8.30998 2.67547 5.98237 2.35998 3.48007C2.34549 3.3823 2.35293 3.28252 2.38176 3.18798C2.41058 3.09343 2.46007 3.00647 2.52664 2.93341C2.58837 2.86313 2.6642 2.80663 2.74919 2.76758C2.83418 2.72853 2.92645 2.7078 3.01998 2.70674H5.01998C5.17501 2.70329 5.32639 2.75399 5.44807 2.85012C5.56975 2.94625 5.65412 3.08179 5.68664 3.23341C5.71331 3.41563 5.74664 3.59563 5.78664 3.77341C5.86366 4.12484 5.96615 4.47019 6.09331 4.80674L5.15998 5.24007C5.08017 5.27669 5.00839 5.32871 4.94875 5.39314C4.8891 5.45757 4.84278 5.53315 4.81242 5.61554C4.78207 5.69793 4.76829 5.7855 4.77187 5.87322C4.77546 5.96095 4.79634 6.0471 4.83331 6.12674C5.79278 8.18191 7.44481 9.83394 9.49998 10.7934C9.66228 10.8601 9.84434 10.8601 10.0066 10.7934C10.1721 10.7318 10.3063 10.6072 10.38 10.4467L10.8 9.51341C11.1446 9.63666 11.4964 9.73907 11.8533 9.82008C12.0266 9.86007 12.2133 9.89341 12.3933 9.92008C12.5437 9.95394 12.6777 10.0389 12.7725 10.1604C12.8673 10.282 12.9171 10.4326 12.9133 10.5867L12.9333 12.6667Z" fill="#141F14"/>
</svg>
