<svg width="16" height="16" viewBox="0 0 16 16" fill="none" xmlns="http://www.w3.org/2000/svg">
<g id="u:print" opacity="0.6">
<path id="Vector" d="M11.4997 4.00001V4.50001H11.9997H12.6663C13.0642 4.50001 13.4457 4.65805 13.727 4.93935L14.0806 4.5858L13.727 4.93935C14.0083 5.22065 14.1663 5.60219 14.1663 6.00001V10C14.1663 10.3978 14.0083 10.7794 13.727 11.0607C13.4457 11.342 13.0642 11.5 12.6663 11.5H11.9997H11.4997V12V14C11.4997 14.0442 11.4821 14.0866 11.4509 14.1179L11.8044 14.4714L11.4509 14.1179C11.4196 14.1491 11.3772 14.1667 11.333 14.1667H4.66634C4.62214 14.1667 4.57975 14.1491 4.54849 14.1179C4.51723 14.0866 4.49967 14.0442 4.49967 14V12V11.5H3.99967H3.33301C2.93518 11.5 2.55365 11.342 2.27235 11.0607C1.99104 10.7794 1.83301 10.3978 1.83301 10V6.00001C1.83301 5.60219 1.99104 5.22065 2.27235 4.93935C2.55365 4.65805 2.93518 4.50001 3.33301 4.50001H3.99967H4.49967V4.00001V2.00001C4.49967 1.95581 4.51723 1.91342 4.54849 1.88216C4.57975 1.8509 4.62214 1.83334 4.66634 1.83334H11.333C11.3772 1.83334 11.4196 1.8509 11.4509 1.88216C11.4821 1.91341 11.4997 1.95581 11.4997 2.00001V4.00001ZM5.33301 2.16668H4.83301V2.66668V4.00001V4.50001H5.33301H10.6663H11.1663V4.00001V2.66668V2.16668H10.6663H5.33301ZM10.6663 13.8333H11.1663V13.3333V10.6667V10.1667H10.6663H5.33301H4.83301V10.6667V13.3333V13.8333H5.33301H10.6663ZM11.4997 10.6667V11.1667H11.9997H12.6663C12.9758 11.1667 13.2725 11.0438 13.4913 10.825C13.7101 10.6062 13.833 10.3094 13.833 10V6.00001C13.833 5.69059 13.7101 5.39385 13.4913 5.17505C13.2725 4.95626 12.9758 4.83334 12.6663 4.83334H3.33301C3.02359 4.83334 2.72684 4.95626 2.50805 5.17505C2.28926 5.39384 2.16634 5.69059 2.16634 6.00001V10C2.16634 10.3094 2.28926 10.6062 2.50805 10.825C2.72684 11.0438 3.02359 11.1667 3.33301 11.1667H3.99967H4.49967V10.6667V10C4.49967 9.95581 4.51723 9.91342 4.54849 9.88216C4.57975 9.8509 4.62214 9.83334 4.66634 9.83334H11.333C11.3772 9.83334 11.4196 9.8509 11.4509 9.88216L11.8044 9.52861L11.4509 9.88216C11.4821 9.91341 11.4997 9.95581 11.4997 10V10.6667ZM4.57375 7.19477C4.60115 7.17645 4.63338 7.16668 4.66634 7.16668C4.71054 7.16668 4.75294 7.18424 4.78419 7.21549C4.81545 7.24675 4.83301 7.28914 4.83301 7.33334C4.83301 7.36631 4.82323 7.39853 4.80492 7.42594L5.22065 7.70372L4.80492 7.42594C4.78661 7.45335 4.76058 7.47471 4.73012 7.48732C4.69967 7.49994 4.66616 7.50324 4.63383 7.49681C4.6015 7.49038 4.5718 7.4745 4.54849 7.45119C4.52518 7.42789 4.50931 7.39819 4.50288 7.36586C4.49645 7.33353 4.49975 7.30002 4.51236 7.26956C4.52498 7.23911 4.54634 7.21308 4.57375 7.19477L4.29596 6.77903L4.57375 7.19477Z" fill="#141F14" stroke="#141F14"/>
</g>
</svg>
