<svg width="48" height="48" viewBox="0 0 48 48" fill="none" xmlns="http://www.w3.org/2000/svg">
<rect width="48" height="48" rx="12" fill="#2B9EF1"/>
<path fill-rule="evenodd" clip-rule="evenodd" d="M30.4026 30.4917V30.49L30.4176 30.4542L32.9167 17.8542V17.8142C32.9167 17.5 32.8001 17.2258 32.5484 17.0617C32.3276 16.9175 32.0734 16.9075 31.8951 16.9208C31.7291 16.9358 31.5653 16.9694 31.4067 17.0208C31.3391 17.0426 31.2724 17.0671 31.2067 17.0942L31.1959 17.0983L17.2626 22.5642L17.2584 22.5658C17.216 22.5803 17.1746 22.5973 17.1342 22.6167C17.0351 22.6612 16.9401 22.7142 16.8501 22.775C16.6709 22.8983 16.3301 23.1883 16.3876 23.6483C16.4351 24.03 16.6976 24.2717 16.8751 24.3975C16.9798 24.4709 17.0925 24.5324 17.2109 24.5808L17.2376 24.5925L17.2459 24.595L17.2517 24.5975L19.6901 25.4183C19.6817 25.5708 19.6967 25.7267 19.7376 25.8808L20.9584 30.5133C21.0251 30.7659 21.1692 30.9911 21.3705 31.1575C21.5718 31.324 21.8202 31.4231 22.0807 31.4412C22.3413 31.4592 22.6009 31.3951 22.8232 31.258C23.0455 31.1209 23.2192 30.9176 23.3201 30.6767L25.2267 28.6383L28.5009 31.1483L28.5476 31.1683C28.8451 31.2983 29.1226 31.3392 29.3767 31.305C29.6309 31.27 29.8326 31.1633 29.9842 31.0425C30.1596 30.9003 30.2995 30.7191 30.3926 30.5133L30.3992 30.4992L30.4017 30.4942L30.4026 30.4917ZM20.9459 25.5625C20.9324 25.5111 20.9356 25.4567 20.9551 25.4073C20.9745 25.3578 21.0093 25.3159 21.0542 25.2875L29.3217 20.0375C29.3217 20.0375 29.8084 19.7417 29.7909 20.0375C29.7909 20.0375 29.8776 20.0892 29.6167 20.3317C29.3701 20.5625 23.7242 26.0133 23.1526 26.565C23.1208 26.5959 23.0985 26.6352 23.0884 26.6783L22.1667 30.195L20.9459 25.5617V25.5625Z" fill="white"/>
</svg>
